<svg viewBox="0 0 1200 220" xmlns="http://www.w3.org/2000/svg">
  <defs>
    <linearGradient id="glow1" x1="0%" y1="0%" x2="100%" y2="100%">
      <stop offset="0%" stop-color="#00D9FF"/>
      <stop offset="100%" stop-color="#BD00FF"/>
    </linearGradient>
    <linearGradient id="glow2" x1="100%" y1="0%" x2="0%" y2="100%">
      <stop offset="0%" stop-color="#BD00FF"/>
      <stop offset="100%" stop-color="#00D9FF"/>
    </linearGradient>
  </defs>
  <style>
    .bg{fill:#0D1117}
    .tile{opacity:.05;animation:pulse 3.5s ease-in-out infinite}
    .d0{animation-delay:0s}.d1{animation-delay:.25s}.d2{animation-delay:.5s}.d3{animation-delay:.75s}
    .d4{animation-delay:1s}.d5{animation-delay:1.25s}.d6{animation-delay:1.5s}.d7{animation-delay:1.75s}
    .d8{animation-delay:2s}.d9{animation-delay:2.25s}.d10{animation-delay:2.5s}.d11{animation-delay:2.75s}
    .d12{animation-delay:3s}.d13{animation-delay:.35s}.d14{animation-delay:1.15s}.d15{animation-delay:1.85s}
    @keyframes pulse{0%,100%{opacity:.04}50%{opacity:.4}}
    .name{font-family:'Segoe UI','Helvetica Neue',Arial,sans-serif;font-size:64px;font-weight:700;fill:#FFF}
    .sub{font-family:'Segoe UI','Helvetica Neue',Arial,sans-serif;font-size:16px;fill:#8B949E;letter-spacing:4px}
    .al{stroke-dasharray:600;stroke-dashoffset:600;animation:draw 2.5s ease-out forwards}
    .al2{stroke-dasharray:600;stroke-dashoffset:600;animation:draw 2.5s ease-out .3s forwards}
    @keyframes draw{to{stroke-dashoffset:0}}
    .cur{animation:blink 1s step-end infinite}
    @keyframes blink{0%,100%{opacity:1}50%{opacity:0}}
  </style>
  <rect width="1200" height="220" class="bg"/>
  <!-- Left mosaic -->
  <rect x="20" y="12" width="20" height="20" rx="4" fill="#00D9FF" class="tile d0"/>
  <rect x="20" y="42" width="20" height="20" rx="4" fill="#BD00FF" class="tile d5"/>
  <rect x="20" y="72" width="20" height="20" rx="4" fill="#00D9FF" class="tile d10"/>
  <rect x="20" y="130" width="20" height="20" rx="4" fill="#BD00FF" class="tile d3"/>
  <rect x="20" y="160" width="20" height="20" rx="4" fill="#00D9FF" class="tile d8"/>
  <rect x="20" y="190" width="20" height="20" rx="4" fill="#BD00FF" class="tile d13"/>
  <rect x="50" y="22" width="20" height="20" rx="4" fill="#BD00FF" class="tile d2"/>
  <rect x="50" y="55" width="20" height="20" rx="4" fill="#00D9FF" class="tile d7"/>
  <rect x="50" y="88" width="20" height="20" rx="4" fill="#BD00FF" class="tile d12"/>
  <rect x="50" y="120" width="20" height="20" rx="4" fill="#00D9FF" class="tile d4"/>
  <rect x="50" y="155" width="20" height="20" rx="4" fill="#BD00FF" class="tile d9"/>
  <rect x="50" y="185" width="20" height="20" rx="4" fill="#00D9FF" class="tile d14"/>
  <rect x="80" y="8" width="20" height="20" rx="4" fill="#00D9FF" class="tile d6"/>
  <rect x="80" y="40" width="20" height="20" rx="4" fill="#BD00FF" class="tile d11"/>
  <rect x="80" y="100" width="20" height="20" rx="4" fill="#00D9FF" class="tile d1"/>
  <rect x="80" y="140" width="20" height="20" rx="4" fill="#BD00FF" class="tile d15"/>
  <rect x="80" y="175" width="20" height="20" rx="4" fill="#00D9FF" class="tile d6"/>
  <rect x="110" y="30" width="16" height="16" rx="3" fill="#BD00FF" class="tile d8"/>
  <rect x="110" y="70" width="16" height="16" rx="3" fill="#00D9FF" class="tile d3"/>
  <rect x="110" y="150" width="16" height="16" rx="3" fill="#BD00FF" class="tile d11"/>
  <rect x="110" y="190" width="16" height="16" rx="3" fill="#00D9FF" class="tile d5"/>
  <rect x="138" y="15" width="12" height="12" rx="2" fill="#00D9FF" class="tile d9"/>
  <rect x="138" y="55" width="12" height="12" rx="2" fill="#BD00FF" class="tile d14"/>
  <rect x="138" y="165" width="12" height="12" rx="2" fill="#00D9FF" class="tile d2"/>
  <rect x="138" y="195" width="12" height="12" rx="2" fill="#BD00FF" class="tile d7"/>
  <!-- Right mosaic -->
  <rect x="1160" y="12" width="20" height="20" rx="4" fill="#BD00FF" class="tile d1"/>
  <rect x="1160" y="42" width="20" height="20" rx="4" fill="#00D9FF" class="tile d6"/>
  <rect x="1160" y="72" width="20" height="20" rx="4" fill="#BD00FF" class="tile d11"/>
  <rect x="1160" y="130" width="20" height="20" rx="4" fill="#00D9FF" class="tile d4"/>
  <rect x="1160" y="160" width="20" height="20" rx="4" fill="#BD00FF" class="tile d9"/>
  <rect x="1160" y="190" width="20" height="20" rx="4" fill="#00D9FF" class="tile d14"/>
  <rect x="1130" y="22" width="20" height="20" rx="4" fill="#00D9FF" class="tile d3"/>
  <rect x="1130" y="55" width="20" height="20" rx="4" fill="#BD00FF" class="tile d8"/>
  <rect x="1130" y="88" width="20" height="20" rx="4" fill="#00D9FF" class="tile d13"/>
  <rect x="1130" y="120" width="20" height="20" rx="4" fill="#BD00FF" class="tile d5"/>
  <rect x="1130" y="155" width="20" height="20" rx="4" fill="#00D9FF" class="tile d10"/>
  <rect x="1130" y="185" width="20" height="20" rx="4" fill="#BD00FF" class="tile d15"/>
  <rect x="1100" y="8" width="20" height="20" rx="4" fill="#BD00FF" class="tile d7"/>
  <rect x="1100" y="40" width="20" height="20" rx="4" fill="#00D9FF" class="tile d12"/>
  <rect x="1100" y="100" width="20" height="20" rx="4" fill="#BD00FF" class="tile d2"/>
  <rect x="1100" y="140" width="20" height="20" rx="4" fill="#00D9FF" class="tile d0"/>
  <rect x="1100" y="175" width="20" height="20" rx="4" fill="#BD00FF" class="tile d8"/>
  <rect x="1074" y="30" width="16" height="16" rx="3" fill="#00D9FF" class="tile d10"/>
  <rect x="1074" y="70" width="16" height="16" rx="3" fill="#BD00FF" class="tile d4"/>
  <rect x="1074" y="150" width="16" height="16" rx="3" fill="#00D9FF" class="tile d13"/>
  <rect x="1074" y="190" width="16" height="16" rx="3" fill="#BD00FF" class="tile d6"/>
  <rect x="1050" y="15" width="12" height="12" rx="2" fill="#BD00FF" class="tile d11"/>
  <rect x="1050" y="55" width="12" height="12" rx="2" fill="#00D9FF" class="tile d1"/>
  <rect x="1050" y="165" width="12" height="12" rx="2" fill="#BD00FF" class="tile d9"/>
  <rect x="1050" y="195" width="12" height="12" rx="2" fill="#00D9FF" class="tile d3"/>
  <!-- Lines -->
  <line x1="200" y1="82" x2="1000" y2="82" stroke="url(#glow1)" stroke-width=".8" opacity=".2" class="al"/>
  <line x1="200" y1="142" x2="1000" y2="142" stroke="url(#glow2)" stroke-width=".8" opacity=".2" class="al2"/>
  <!-- Name -->
  <text x="600" y="118" text-anchor="middle" class="name">Zuhayr</text>
  <rect x="690" y="90" width="4" height="35" rx="1" fill="#00D9FF" class="cur"/>
  <text x="600" y="155" text-anchor="middle" class="sub">ENTREPRENEUR  ·  BUILDER  ·  FINANCE × CODE</text>
</svg>
